HIERARCHY
ROOT Hips
{
  OFFSET 13.6774 106.653 -34.4427
  CHANNELS 6 Xposition Yposition Zposition Zrotation Xrotation Yrotation
  JOINT ToSpine
  {
    OFFSET -2.69724 7.43032 -0.144315
    CHANNELS 3 Zrotation Xrotation Yrotation
    JOINT Spine
    {
      OFFSET -0.0310711 10.7595 1.96963
      CHANNELS 3 Zrotation Xrotation Yrotation
      JOINT Spine1
      {
        OFFSET 19.9056 3.91189 0.764692
        CHANNELS 3 Zrotation Xrotation Yrotation
        JOINT Neck
        {
          OFFSET 25.9749 7.03908 -0.130764
          CHANNELS 3 Zrotation Xrotation Yrotation
          JOINT Head
          {
            OFFSET 9.52751 0.295786 -0.907742
            CHANNELS 3 Zrotation Xrotation Yrotation
            End Site
            {
              OFFSET 16.4037 0.713936 2.7358
            }
          }
        }
        JOINT LeftShoulder
        {
          OFFSET 17.7449 4.33886 11.7777
          CHANNELS 3 Zrotation Xrotation Yrotation
          JOINT LeftArm
          {
            OFFSET 0.911315 1.27913 9.80584
            CHANNELS 3 Zrotation Xrotation Yrotation
            JOINT LeftForeArm
            {
              OFFSET 28.6126 1.18197 -3.53199
              CHANNELS 3 Zrotation Xrotation Yrotation
              JOINT LeftHand
              {
                OFFSET 27.5088 0.0218783 0.327423
                CHANNELS 3 Zrotation Xrotation Yrotation
                End Site
                {
                  OFFSET 18.6038 -0.000155887 0.382096
                }
              }
            }
          }
        }
        JOINT RightShoulder
        {
          OFFSET 17.1009 2.89543 -12.2328
          CHANNELS 3 Zrotation Xrotation Yrotation
          JOINT RightArm
          {
            OFFSET 1.4228 0.178766 -10.211
            CHANNELS 3 Zrotation Xrotation Yrotation
            JOINT RightForeArm
            {
              OFFSET 28.733 1.87905 2.64907
              CHANNELS 3 Zrotation Xrotation Yrotation
              JOINT RightHand
              {
                OFFSET 27.4588 0.290562 -0.101845
                CHANNELS 3 Zrotation Xrotation Yrotation
                End Site
                {
                  OFFSET 17.8396 -0.255518 -0.000602873
                }
              }
            }
          }
        }
      }
    }
  }
  JOINT LeftUpLeg
  {
    OFFSET -5.61296 -2.22332 -10.2353
    CHANNELS 3 Zrotation Xrotation Yrotation
    JOINT LeftLeg
    {
      OFFSET 2.56703 -44.7417 -7.93097
      CHANNELS 3 Zrotation Xrotation Yrotation
      JOINT LeftFoot
      {
        OFFSET 3.16933 -46.5642 -3.96578
        CHANNELS 3 Zrotation Xrotation Yrotation
        JOINT LeftToeBase
        {
          OFFSET 0.346054 -6.02161 12.8035
          CHANNELS 3 Zrotation Xrotation Yrotation
          End Site
          {
            OFFSET 0.134235 -1.35082 5.13018
          }
        }
      }
    }
  }
  JOINT RightUpLeg
  {
    OFFSET -5.7928 -1.72406 10.6446
    CHANNELS 3 Zrotation Xrotation Yrotation
    JOINT RightLeg
    {
      OFFSET -2.57161 -44.7178 -7.85259
      CHANNELS 3 Zrotation Xrotation Yrotation
      JOINT RightFoot
      {
        OFFSET -3.10148 -46.5936 -4.03391
        CHANNELS 3 Zrotation Xrotation Yrotation
        JOINT RightToeBase
        {
          OFFSET -0.0828122 -6.13587 12.8035
          CHANNELS 3 Zrotation Xrotation Yrotation
          End Site
          {
            OFFSET -0.131328 -1.35082 5.13018
          }
        }
      }
    }
  }
}
MOTION
Frames: 19
Frame Time: 0.03333333333333333
0.0000 93.1000 0.0000 60.3782 -51.1341 -24.8284 -70.7253 -0.1938 87.6253 76.8092 70.8508 4.3257 3.1586 20.7537 1.8672 -124.6399 30.2534 158.5588 -165.4218 74.3205 -156.9966 0.2141 -14.8010 -21.5543 -59.2108 33.2155 -137.1053 10.9335 -0.6000 -91.9242 -0.6975 -1.2369 4.8717 -1.9075 7.4442 27.3638 -127.6532 -33.7268 97.2887 17.5148 -9.6690 61.9160 -0.2155 0.8751 0.8225 -50.4296 5.3862 102.6886 -1.9504 33.9941 -2.8643 1.2907 -13.2804 -0.7651 1.7612 -7.3174 7.0066 -44.0438 -8.5085 80.8528 0.9763 16.4652 11.8832 -1.5503 8.6843 -1.0715 -0.3394 -4.6193 0.3753 
0.0000 93.1000 0.0000 53.1577 -56.0419 -32.1858 -70.7546 -0.4544 87.7988 71.6531 70.6854 9.3492 3.9800 20.2352 2.4816 -123.6182 28.1406 160.3701 -157.3602 71.4296 -162.3907 -0.0425 -15.0165 -20.5375 -63.7747 35.2910 -134.1900 9.9174 -0.5498 -89.8625 -0.8617 -1.0585 4.7837 -1.8244 7.3197 23.8868 -120.1709 -42.0607 104.3074 19.2244 -10.0992 64.6951 0.2623 0.8102 1.2110 -50.9971 5.7427 106.8298 -2.1690 32.7120 -0.3404 2.1886 -13.0691 -0.8101 0.7871 -5.9739 5.7525 -43.6115 -7.7094 80.9884 1.9979 13.1189 20.0307 0.4496 10.1995 -1.4739 0.4339 -11.6772 -12.2925 
0.0000 93.1000 0.0000 44.5859 -60.8388 -40.8005 -70.7306 -0.9093 87.9238 70.5558 70.0619 9.6378 4.7809 19.3149 3.1139 -121.7981 25.2349 161.1837 -149.8964 67.9986 -167.5457 -0.2960 -15.1185 -19.1728 -70.1499 35.1439 -130.0863 7.3740 -0.2173 -87.9677 -0.9174 -0.8952 4.8398 -2.2244 6.3451 23.7616 -107.8166 -47.4145 116.0238 19.4439 -8.2267 68.5644 0.2967 0.6796 1.3285 -50.8515 6.9595 110.0974 -0.7610 32.8072 2.8195 2.7810 -13.3102 -0.7568 2.0756 -8.1624 5.3356 -40.8644 -5.0824 81.6066 0.8006 19.4432 13.8417 -1.6857 4.8364 -1.2163 0.9290 -15.8428 -14.3511 
0.0000 93.1000 0.0000 34.2613 -65.6325 -53.2607 -70.9156 -0.5815 87.8958 72.0358 68.7177 7.5411 5.0012 18.7769 3.1627 -119.0436 23.1872 164.0392 -146.4884 65.2570 -167.1283 0.2963 -15.7240 -18.0684 -76.7021 34.1937 -124.9552 6.1367 -0.3168 -85.4190 -0.4611 -1.9822 4.2302 -2.7306 6.3614 21.4557 -94.9858 -50.7981 128.2425 21.6954 -6.4723 73.0499 -0.0777 1.9506 1.0607 -52.3386 7.4911 112.9825 -0.7460 32.8977 6.5764 0.2831 -12.8635 0.7439 2.7543 -7.9111 7.2485 -38.8446 -4.4360 80.2509 0.7234 29.2236 3.6614 -7.6885 -0.9638 -0.7308 2.0024 -15.7252 -15.5659 
0.0000 93.1000 0.0000 20.2825 -69.7006 -69.3957 -70.8732 0.3623 87.8595 69.9207 67.9911 10.2481 6.3528 18.2224 2.7259 -118.1400 22.4276 168.0318 -143.4080 62.9993 -168.2040 0.7474 -15.7616 -17.1431 -82.9237 32.0504 -118.1908 7.5963 -0.2189 -83.0065 -0.7383 -1.4223 4.5826 -1.5034 5.8544 19.9742 -81.0865 -51.1020 140.5786 24.5028 -5.9495 77.7835 1.4549 1.3991 2.7112 -54.3886 6.9421 112.9437 -1.5184 30.5695 11.7057 -0.2428 -11.4499 -0.3414 3.6536 -9.4874 8.3502 -38.7679 -4.8936 77.7498 0.4553 38.7081 -5.1645 -10.5701 -2.9494 0.7068 1.1020 -14.3787 -13.3927 
0.0000 93.1000 0.0000 3.7266 -72.2351 -87.6083 -70.7324 0.9727 87.7359 67.5010 66.4056 11.7104 7.9417 18.0568 2.2629 -118.4486 21.8465 173.6378 -142.8618 60.7030 -168.3576 1.0746 -16.3121 -18.0062 -89.1392 30.5513 -111.5694 9.3016 0.7999 -82.3792 -0.8975 -1.4742 4.7708 -0.9842 5.2787 18.0872 -68.4356 -49.7897 150.4440 23.8990 -3.9350 81.9366 1.6367 1.5005 3.1504 -57.2297 4.9810 112.8787 -2.7763 29.6791 17.1928 -0.9568 -10.5085 -0.4075 4.2113 -10.5694 9.0171 -39.5919 -5.9947 75.4593 -0.0989 47.0217 -8.6621 -13.4178 -4.0404 1.5766 1.1009 -13.4937 -10.9625 
0.0000 93.1000 0.0000 -13.7074 -70.3923 -105.6856 -70.9358 2.3723 87.8907 64.5755 65.4124 16.2174 10.6209 16.9008 1.9100 -120.5900 20.9651 176.7054 -141.7637 58.6100 -170.8798 1.9045 -15.5358 -17.5000 -93.8480 28.3259 -105.9611 12.4354 0.9382 -81.0661 -2.0440 -1.1332 5.9517 0.3409 4.9125 18.3741 -59.1268 -44.9977 155.6927 22.0144 -1.9472 87.9625 1.8605 1.1924 4.4553 -58.9872 5.2462 114.9487 -3.1531 30.9620 16.6905 -1.8709 -9.2005 -1.0945 4.3519 -12.5115 11.4086 -41.5171 -5.4676 75.0432 0.4785 47.5974 -9.8601 -14.4963 -2.2256 2.6902 0.5251 -15.6607 -6.1448 
0.0000 93.1000 0.0000 -29.0685 -68.8677 -121.4859 -70.4614 0.6424 87.6271 60.4914 64.2765 20.8036 11.3953 16.4440 2.7610 -122.2380 21.0050 -178.4838 -140.8490 57.1914 -172.8750 0.7210 -16.4849 -17.1261 -100.1780 27.3422 -97.4326 12.6794 0.8112 -82.2866 -1.0705 -1.4888 4.4461 -1.3016 4.1813 20.3263 -53.5678 -39.6889 158.6163 22.8795 1.3388 91.2662 0.8817 1.5275 2.8659 -57.9199 6.2256 118.7195 -1.0736 32.5627 12.5161 -2.3693 -8.1865 0.3852 4.8649 -13.9333 13.3323 -45.5793 -5.9735 74.1738 0.0056 44.7394 -8.1143 -11.7855 -3.5756 0.9082 1.7088 -21.2701 -3.1512 
0.0000 93.1000 0.0000 -40.6443 -64.7491 -133.2022 -70.5145 0.7502 87.8758 58.5491 63.6905 23.7427 12.5285 16.2918 2.8819 -125.5288 19.7322 -177.1936 -139.9276 54.9918 -175.1220 0.4064 -17.1855 -19.7406 -106.0901 23.0789 -89.7837 13.1132 0.7777 -83.0208 -0.8109 -0.7836 3.9933 -0.7258 4.3727 22.0718 -51.7663 -34.5559 157.8247 20.1493 1.8778 95.5739 1.6015 0.7170 3.1428 -57.4141 8.8750 120.6145 -0.8230 38.0460 11.2595 -1.5036 -6.4732 -0.6642 5.5235 -14.3162 11.6498 -48.4554 -3.9468 75.8685 0.6480 37.6537 1.2784 -7.1353 -6.1054 1.2011 2.9389 -18.0091 -10.8983 
0.0000 93.1000 0.0000 -51.5039 -59.8454 -143.0208 -70.5263 0.3478 88.0367 59.6996 63.9273 25.1668 13.0590 16.2743 1.9062 -129.5898 18.1569 -174.9890 -142.5842 53.3185 -175.8839 0.0084 -17.8178 -22.3713 -111.0777 16.6435 -83.5436 12.0322 1.1960 -83.3915 -1.2245 -0.4897 3.7724 -0.9387 4.2487 24.4696 -49.9372 -29.9313 157.1622 17.0105 3.1719 98.8701 1.3046 0.2567 2.1280 -55.2437 13.2518 122.3356 -0.9855 47.1949 7.9479 -1.8310 -4.0906 -0.8198 5.9437 -15.6647 15.4867 -48.9385 -1.7277 78.0441 0.7381 35.1868 2.0285 -7.1815 -8.8204 1.4083 0.8500 -14.2035 -3.8384 
0.0000 93.1000 0.0000 -58.5632 -53.4541 -150.2081 -70.6873 0.4851 87.9562 65.5202 64.9571 21.2474 12.4998 17.1043 1.2975 -131.6741 16.9860 -172.2430 -141.2230 51.7758 -176.1657 -0.1431 -18.6381 -24.9604 -115.0747 10.8875 -78.7542 11.1270 1.2574 -84.3563 -1.3132 -0.2787 3.9468 -0.7931 4.2662 26.0934 -48.6805 -25.9806 158.4745 14.9907 2.7340 100.5362 0.7165 -0.0620 1.6787 -52.0746 18.2234 121.1960 -3.2499 56.8875 9.0971 -0.0250 -0.2351 -1.0737 6.1852 -16.4114 14.4913 -48.9453 1.0178 81.7161 1.1863 34.8126 3.9826 -8.7369 -10.7191 1.8072 0.9824 -9.8087 -5.6982 
0.0000 93.1000 0.0000 -61.9237 -47.7623 -155.1048 -70.7503 -0.0837 88.0014 72.4778 65.5593 16.1498 11.0623 17.0476 0.9791 -133.5058 14.8030 -171.0792 -141.3172 50.0009 -177.4788 -0.6067 -18.9861 -27.0580 -120.0703 5.9929 -72.7923 11.8481 0.9541 -85.0567 -1.3759 -0.3194 4.0386 -1.4518 4.8598 28.1510 -48.9001 -21.8508 158.5234 12.8110 1.9980 100.8591 -0.0131 -0.1446 0.8514 -48.1187 20.5343 116.9649 -4.8171 64.5907 6.4257 -0.5780 0.9786 -0.4838 5.1970 -13.1132 11.2387 -48.1497 2.0718 82.6365 0.8632 35.0846 6.1982 -8.9185 -12.6570 1.1654 -0.1610 -6.5046 -0.3004 
0.0000 93.1000 0.0000 -62.8139 -43.8811 -157.1178 -70.7146 -1.2660 87.9894 75.6162 65.7596 11.7294 9.8046 16.3495 -0.0670 -135.5120 13.2773 -170.3040 -141.3432 47.9562 -178.3717 -1.5731 -19.2436 -28.7526 -124.2801 1.8681 -69.8601 13.1626 1.4613 -84.1028 -1.4832 0.0867 4.2640 -2.3230 5.2722 31.0774 -49.1488 -18.0960 157.9742 9.9168 1.7141 101.0624 -0.3182 -0.6847 0.3528 -44.4822 20.7029 110.8072 -6.9536 65.9650 0.1609 -2.4888 -1.8947 -0.2372 4.7052 -13.4536 11.4634 -46.0899 2.2175 83.7378 0.5427 36.0732 9.1906 -8.2957 -12.4471 0.2985 -0.1314 -6.4374 -2.8074 
0.0000 93.1000 0.0000 -65.3125 -40.8117 -160.1246 -70.4679 -0.6540 87.7288 80.4175 66.0660 7.2025 8.0462 16.2386 0.2806 -137.5758 11.7653 -170.0654 -142.5167 46.9152 -177.9298 -1.3708 -19.2533 -30.8872 -128.3847 -1.1198 -68.7915 14.3026 1.0326 -84.0329 -1.2279 0.0698 4.0854 -1.8448 5.7921 32.0618 -49.1052 -15.1127 158.0579 9.2472 1.0841 100.7970 0.0964 -0.7434 0.7248 -41.0990 19.3742 104.2562 -6.9382 61.8851 -2.6466 -2.8093 -4.8775 -1.3216 5.5921 -14.5195 12.5995 -44.0481 2.1386 86.7344 2.0722 38.0059 9.9931 -7.4823 -11.4881 1.2298 0.2700 -7.0002 -1.8544 
0.0000 93.1000 0.0000 -66.2853 -36.8667 -162.4126 -70.4435 -0.9213 87.8007 83.6150 66.7778 3.0789 6.9197 17.1093 1.0719 -137.6924 10.8659 -171.0500 -141.7036 45.9661 -178.2344 -1.4912 -19.0679 -31.9635 -131.7979 -2.9699 -67.8957 15.1465 1.6920 -84.1499 -1.2404 -0.0511 4.0310 -2.0370 6.0513 31.5415 -48.8715 -15.0678 157.9232 8.9862 0.9465 99.6916 0.0243 -0.7311 0.2111 -41.0732 18.9292 99.4728 -4.1152 54.5446 -0.9008 -2.8719 -6.7428 -1.3380 5.9674 -15.1251 13.0245 -42.0824 2.3920 88.9141 1.7198 40.0968 9.7403 -6.8331 -12.6659 1.1748 0.4996 -6.4102 -0.4110 
0.0000 93.1000 0.0000 -67.1531 -32.5081 -164.3106 -70.5504 -0.4284 87.8921 85.7083 66.9837 2.1823 6.4563 17.9298 -0.5634 -136.7128 9.7404 -171.4337 -140.8625 44.7985 -178.6343 -0.9467 -17.8990 -31.8473 -133.7860 -3.2026 -68.9344 17.2237 1.8048 -83.2231 -1.3070 -0.3864 4.0240 -1.7809 5.9844 30.8606 -47.8866 -15.0524 158.0736 9.6683 1.1959 97.9461 0.4159 -0.3436 0.3357 -43.5525 19.1198 96.0097 -2.5999 44.9730 3.1717 -2.5201 -7.0709 -1.4688 5.0339 -14.7001 12.6241 -40.8088 2.9594 91.7219 2.8155 40.6272 11.2205 -4.6046 -12.7571 1.2484 1.0662 -4.5934 -3.7257 
0.0000 93.1000 0.0000 -67.1175 -29.7625 -166.0421 -70.6425 -0.5127 87.7268 84.7629 67.6121 2.8071 6.4596 18.1918 -1.2478 -135.6831 8.8898 -171.0210 -141.3013 43.6237 -177.0518 -0.9466 -17.6515 -31.6453 -134.1908 -4.9676 -69.2035 18.3128 2.5833 -82.3142 -0.8972 -0.4265 4.2781 -1.9020 6.1772 30.8214 -48.1808 -14.0343 158.1313 10.0611 1.0163 95.6599 0.1985 -0.2874 0.6797 -45.2735 20.0561 94.5354 -1.1834 36.2542 3.5404 -3.1119 -5.6812 -1.1066 4.7374 -13.3905 11.7944 -40.1116 4.1950 95.1554 2.6492 41.9840 13.1178 -3.6090 -12.8780 1.0918 1.0480 -4.5705 -5.0365 
0.0000 93.1000 0.0000 -68.0405 -26.6892 -168.1349 -70.5345 -0.2823 87.7298 83.5405 67.9592 3.1116 6.5075 18.2947 -1.7524 -134.6553 8.1995 -170.8524 -140.0734 42.8764 -177.0144 -0.7466 -17.2261 -30.0112 -133.8564 -6.9784 -69.3451 19.7860 3.0704 -80.2112 -1.2924 -0.5258 4.0880 -1.8223 6.0222 30.0506 -48.3387 -12.8172 158.9868 9.8251 0.7037 94.8068 -0.0255 -0.2397 0.7699 -45.7925 20.8390 93.7500 -1.7809 31.9271 -0.7750 -4.9519 -2.8128 -0.6984 5.1293 -14.3678 11.4244 -39.6143 5.0670 98.7022 2.9062 42.9242 12.9109 -1.9355 -13.0995 1.0996 0.3866 -4.1173 -4.0592 
0.0000 93.1000 0.0000 -69.1205 -24.1330 -169.0363 -70.6560 -0.5204 87.5967 82.7444 67.9064 3.0811 6.5394 18.9789 -2.0110 -133.6298 8.0620 -170.1794 -140.3990 42.2191 -177.1379 -0.9941 -17.0818 -28.9031 -133.1666 -7.8605 -71.1757 22.0056 4.8995 -77.9509 -1.9707 -0.3734 4.3706 -1.8198 5.9225 29.2392 -49.1450 -12.8880 160.0984 10.0696 0.2324 94.6824 -0.1342 -0.4415 0.9496 -46.2511 21.0855 93.1108 -1.5450 33.4103 -4.6537 -6.8854 -1.5057 -0.1925 4.9086 -12.8487 8.8630 -38.8756 6.0035 102.2860 2.7554 44.0979 12.1600 -1.7654 -12.9961 0.8137 -0.1383 -5.5224 -1.3781 
